<svg width="23" height="23" viewBox="0 0 23 23" fill="none" xmlns="http://www.w3.org/2000/svg">
<path d="M16.2917 17.6621H12.4583L8.19374 20.4988C7.56124 20.9204 6.70833 20.47 6.70833 19.7034V17.6621C3.83333 17.6621 1.91667 15.7455 1.91667 12.8705V7.1204C1.91667 4.2454 3.83333 2.32874 6.70833 2.32874H16.2917C19.1667 2.32874 21.0833 4.2454 21.0833 7.1204V12.8705C21.0833 15.7455 19.1667 17.6621 16.2917 17.6621Z" stroke="#171717" stroke-width="1.5" stroke-miterlimit="10" stroke-linecap="round" stroke-linejoin="round"/>
<path d="M11.5 10.8867V10.6854C11.5 10.0338 11.9025 9.68876 12.305 9.41085C12.6979 9.14251 13.0908 8.79752 13.0908 8.16502C13.0908 7.28336 12.3817 6.57416 11.5 6.57416C10.6183 6.57416 9.90919 7.28336 9.90919 8.16502" stroke="#171717" stroke-width="1.5" stroke-linecap="round" stroke-linejoin="round"/>
<path d="M11.4957 13.1771H11.5043" stroke="#171717" stroke-width="1.5" stroke-linecap="round" stroke-linejoin="round"/>
</svg>